<mxfile host="app.diagrams.net" agent="Mozilla/5.0 (X11; Linux x86_64) AppleWebKit/537.36 (KHTML, like Gecko) Chrome/134.0.0.0 Safari/537.36" version="26.2.14">
  <diagram name="Page-1" id="b5b7bab2-c9e2-2cf4-8b2a-24fd1a2a6d21">
    <mxGraphModel dx="745" dy="1451" grid="1" gridSize="10" guides="1" tooltips="1" connect="1" arrows="1" fold="1" page="1" pageScale="1" pageWidth="1169" pageHeight="827" background="none" math="0" shadow="0">
      <root>
        <mxCell id="0" />
        <mxCell id="1" parent="0" />
        <mxCell id="6o90S77G5PdcKT1AFFqI-20" value="" style="shape=folder;fontStyle=1;spacingTop=10;tabWidth=80;tabHeight=30;tabPosition=left;html=1;whiteSpace=wrap;textShadow=1;labelPosition=left;verticalLabelPosition=top;align=right;verticalAlign=bottom;movable=1;resizable=1;rotatable=1;deletable=1;editable=1;locked=0;connectable=1;" parent="1" vertex="1">
          <mxGeometry x="50" y="-20" width="530" height="340" as="geometry" />
        </mxCell>
        <mxCell id="6o90S77G5PdcKT1AFFqI-1" value="main" style="shape=folder;fontStyle=1;spacingTop=10;tabWidth=40;tabHeight=14;tabPosition=left;html=1;whiteSpace=wrap;shadow=0;movable=1;resizable=1;rotatable=1;deletable=1;editable=1;locked=0;connectable=1;" parent="1" vertex="1">
          <mxGeometry x="90" y="140" width="70" height="50" as="geometry" />
        </mxCell>
        <mxCell id="6o90S77G5PdcKT1AFFqI-7" value="&amp;lt;&amp;lt;import&amp;gt;&amp;gt;" style="endArrow=open;endSize=12;dashed=1;html=1;rounded=0;exitX=0;exitY=0;exitDx=70;exitDy=32;exitPerimeter=0;entryX=0;entryY=0;entryDx=0;entryDy=32;entryPerimeter=0;shadow=0;movable=1;resizable=1;rotatable=1;deletable=1;editable=1;locked=0;connectable=1;" parent="1" source="6o90S77G5PdcKT1AFFqI-1" target="z5gWw2tKw2k2h5Ocn3W4-1" edge="1">
          <mxGeometry width="160" relative="1" as="geometry">
            <mxPoint x="150" y="370" as="sourcePoint" />
            <mxPoint x="260" y="172" as="targetPoint" />
            <Array as="points">
              <mxPoint x="210" y="170" />
              <mxPoint x="210" y="122" />
            </Array>
          </mxGeometry>
        </mxCell>
        <mxCell id="6o90S77G5PdcKT1AFFqI-21" value="Сервер" style="text;html=1;align=center;verticalAlign=middle;whiteSpace=wrap;rounded=0;movable=1;resizable=1;rotatable=1;deletable=1;editable=1;locked=0;connectable=1;" parent="1" vertex="1">
          <mxGeometry x="60" y="-20" width="60" height="30" as="geometry" />
        </mxCell>
        <mxCell id="6o90S77G5PdcKT1AFFqI-22" value="" style="shape=folder;fontStyle=1;spacingTop=10;tabWidth=80;tabHeight=30;tabPosition=left;html=1;whiteSpace=wrap;textShadow=1;labelPosition=left;verticalLabelPosition=top;align=right;verticalAlign=bottom;" parent="1" vertex="1">
          <mxGeometry x="50" y="340" width="530" height="300" as="geometry" />
        </mxCell>
        <mxCell id="6o90S77G5PdcKT1AFFqI-24" value="main" style="shape=folder;fontStyle=1;spacingTop=10;tabWidth=40;tabHeight=14;tabPosition=left;html=1;whiteSpace=wrap;shadow=0;" parent="1" vertex="1">
          <mxGeometry x="190" y="420" width="250" height="160" as="geometry" />
        </mxCell>
        <mxCell id="6o90S77G5PdcKT1AFFqI-35" value="Клиент" style="text;html=1;align=center;verticalAlign=middle;whiteSpace=wrap;rounded=0;" parent="1" vertex="1">
          <mxGeometry x="60" y="340" width="60" height="30" as="geometry" />
        </mxCell>
        <mxCell id="z5gWw2tKw2k2h5Ocn3W4-1" value="app" style="shape=folder;fontStyle=1;spacingTop=10;tabWidth=40;tabHeight=14;tabPosition=left;html=1;whiteSpace=wrap;shadow=0;movable=1;resizable=1;rotatable=1;deletable=1;editable=1;locked=0;connectable=1;" vertex="1" parent="1">
          <mxGeometry x="300" y="90" width="70" height="50" as="geometry" />
        </mxCell>
        <mxCell id="z5gWw2tKw2k2h5Ocn3W4-2" value="repository" style="shape=folder;fontStyle=1;spacingTop=10;tabWidth=40;tabHeight=14;tabPosition=left;html=1;whiteSpace=wrap;shadow=0;movable=1;resizable=1;rotatable=1;deletable=1;editable=1;locked=0;connectable=1;" vertex="1" parent="1">
          <mxGeometry x="300" y="200" width="70" height="50" as="geometry" />
        </mxCell>
        <mxCell id="z5gWw2tKw2k2h5Ocn3W4-4" value="&amp;lt;&amp;lt;import&amp;gt;&amp;gt;" style="endArrow=open;endSize=12;dashed=1;html=1;rounded=0;exitX=0;exitY=0;exitDx=70;exitDy=32;exitPerimeter=0;entryX=0;entryY=0;entryDx=0;entryDy=32;entryPerimeter=0;shadow=0;movable=1;resizable=1;rotatable=1;deletable=1;editable=1;locked=0;connectable=1;" edge="1" parent="1" source="6o90S77G5PdcKT1AFFqI-1" target="z5gWw2tKw2k2h5Ocn3W4-2">
          <mxGeometry width="160" relative="1" as="geometry">
            <mxPoint x="170" y="182" as="sourcePoint" />
            <mxPoint x="310" y="132" as="targetPoint" />
            <Array as="points">
              <mxPoint x="210" y="172" />
              <mxPoint x="210" y="232" />
            </Array>
          </mxGeometry>
        </mxCell>
        <mxCell id="z5gWw2tKw2k2h5Ocn3W4-5" value="domain" style="shape=folder;fontStyle=1;spacingTop=10;tabWidth=40;tabHeight=14;tabPosition=left;html=1;whiteSpace=wrap;shadow=0;movable=1;resizable=1;rotatable=1;deletable=1;editable=1;locked=0;connectable=1;" vertex="1" parent="1">
          <mxGeometry x="440" y="140" width="70" height="50" as="geometry" />
        </mxCell>
        <mxCell id="z5gWw2tKw2k2h5Ocn3W4-6" value="&amp;lt;&amp;lt;import&amp;gt;&amp;gt;" style="endArrow=open;endSize=12;dashed=1;html=1;rounded=0;exitX=0;exitY=0;exitDx=70;exitDy=32;exitPerimeter=0;entryX=0;entryY=0;entryDx=55;entryDy=14;entryPerimeter=0;shadow=0;movable=1;resizable=1;rotatable=1;deletable=1;editable=1;locked=0;connectable=1;" edge="1" parent="1" source="z5gWw2tKw2k2h5Ocn3W4-1" target="z5gWw2tKw2k2h5Ocn3W4-5">
          <mxGeometry width="160" relative="1" as="geometry">
            <mxPoint x="170" y="182" as="sourcePoint" />
            <mxPoint x="310" y="132" as="targetPoint" />
            <Array as="points">
              <mxPoint x="495" y="122" />
            </Array>
          </mxGeometry>
        </mxCell>
        <mxCell id="z5gWw2tKw2k2h5Ocn3W4-7" value="&amp;lt;&amp;lt;import&amp;gt;&amp;gt;" style="endArrow=open;endSize=12;dashed=1;html=1;rounded=0;exitX=0;exitY=0;exitDx=70;exitDy=32;exitPerimeter=0;shadow=0;movable=1;resizable=1;rotatable=1;deletable=1;editable=1;locked=0;connectable=1;entryX=0.5;entryY=1;entryDx=0;entryDy=0;entryPerimeter=0;" edge="1" parent="1" source="z5gWw2tKw2k2h5Ocn3W4-2" target="z5gWw2tKw2k2h5Ocn3W4-5">
          <mxGeometry width="160" relative="1" as="geometry">
            <mxPoint x="180" y="192" as="sourcePoint" />
            <mxPoint x="440" y="170" as="targetPoint" />
            <Array as="points">
              <mxPoint x="475" y="232" />
            </Array>
          </mxGeometry>
        </mxCell>
      </root>
    </mxGraphModel>
  </diagram>
</mxfile>
